<svg xmlns="http://www.w3.org/2000/svg" width="64" height="64" viewBox="0 0 64 64">
  <defs>
    <linearGradient id="g" x1="0" y1="0" x2="1" y2="1">
      <stop offset="0" stop-color="#1B1730"/>
      <stop offset="1" stop-color="#3B2A5C"/>
    </linearGradient>
  </defs>
  <rect width="64" height="64" rx="16" fill="url(#g)"/>
  <path d="M32 50c-11-3-17-10-17-19 0 0 6 .7 10.3 5M32 50c11-3 17-10 17-19 0 0-6 .7-10.3 5M32 50V21M32 50c-4-2.5-6.4-7-6.4-12.4 0-6.3 3-11.6 6.4-14.6 3.4 3 6.4 8.3 6.4 14.6 0 5.4-2.4 9.9-6.4 12.4Z"
    fill="rgba(196,176,232,0.28)" stroke="#C4B0E8" stroke-width="2" stroke-linecap="round" stroke-linejoin="round"/>
</svg>
